<svg width="115" height="35" viewBox="0 0 417 126" fill="none" xmlns="http://www.w3.org/2000/svg">
<path d="M114.2 25.94L88.25 37.06L99.37 48.18V81.53L125.31 70.41V37.06L114.2 25.94Z" fill="white"/>
<path d="M151.25 25.94L125.31 37.06L136.43 48.18V126L162.37 114.88V37.06L151.25 25.94Z" fill="white"/>
<path d="M368.29 25.94L342.35 37.06L353.46 48.18V81.53L379.4 70.41V37.06L368.29 25.94Z" fill="white"/>
<path d="M405.35 25.94L379.4 37.06L390.52 48.18V126L416.46 114.88V37.06L405.35 25.94Z" fill="white"/>
<path d="M239.36 55.59L213.42 66.71L224.54 77.82V110.12L250.48 99V66.71L239.36 55.59Z" fill="white"/>
<path d="M202.3 25.94L176.36 37.06L187.48 48.18V126L213.42 114.88V37.06L202.3 25.94Z" fill="white"/>
<path d="M25.94 0L0 11.12L11.12 22.23V100.06L37.06 88.94V11.12L25.94 0Z" fill="white"/>
<path d="M74.12 103.77V37.06L63 25.94L37.06 37.06L48.18 48.18V114.88L59.29 126L85.23 114.88L74.12 103.77Z" fill="white"/>
<path d="M279.68 25.94L253.74 37.06L264.86 48.18V126L290.8 114.88V37.06L279.68 25.94Z" fill="white"/>
<path d="M316.76 25.94L290.8 37.02L309.3 55.58L335.26 44.5L316.76 25.94Z" fill="white"/>
</svg>
