<svg width="127" height="96" viewBox="0 0 127 96" fill="none" xmlns="http://www.w3.org/2000/svg">
<path d="M124.03 27.7834H109.178L105.05 17.4639C100.808 6.85407 90.6847 0 79.2563 0H47.7519C36.3259 0 26.1999 6.85407 21.9555 17.4639L17.8276 27.7834H2.97838C1.04098 27.7834 -0.380444 29.6042 0.0908824 31.4821L1.57928 37.4357C1.90921 38.7604 3.09993 39.6906 4.46677 39.6906H9.44547C6.11393 42.6004 3.96816 46.83 3.96816 51.5978V63.505C3.96816 67.5038 5.49625 71.1132 7.93722 73.9064V87.3194C7.93722 91.7027 11.492 95.2575 15.8753 95.2575H23.8135C28.1968 95.2575 31.7516 91.7027 31.7516 87.3194V79.3812H95.2566V87.3194C95.2566 91.7027 98.8114 95.2575 103.195 95.2575H111.133C115.516 95.2575 119.071 91.7027 119.071 87.3194V73.9064C121.512 71.1157 123.04 67.5063 123.04 63.505V51.5978C123.04 46.83 120.894 42.6004 117.565 39.6906H122.544C123.911 39.6906 125.101 38.7604 125.431 37.4357L126.92 31.4821C127.389 29.6042 125.967 27.7834 124.03 27.7834ZM36.6956 23.3604C38.504 18.8406 42.8823 15.8762 47.7519 15.8762H79.2563C84.1259 15.8762 88.5042 18.8406 90.3126 23.3604L95.2566 35.7216H31.7516L36.6956 23.3604ZM23.8135 63.4554C19.0506 63.4554 15.8753 60.2901 15.8753 55.5421C15.8753 50.7941 19.0506 47.6287 23.8135 47.6287C28.5763 47.6287 35.7207 54.7507 35.7207 59.4987C35.7207 64.2467 28.5763 63.4554 23.8135 63.4554ZM103.195 63.4554C98.4318 63.4554 91.2875 64.2467 91.2875 59.4987C91.2875 54.7507 98.4318 47.6287 103.195 47.6287C107.958 47.6287 111.133 50.7941 111.133 55.5421C111.133 60.2901 107.958 63.4554 103.195 63.4554Z" fill="white"/>
</svg>
