<svg width="127" height="159" viewBox="0 0 127 159" fill="none" xmlns="http://www.w3.org/2000/svg">
<path fill-rule="evenodd" clip-rule="evenodd" d="M47.6287 18.5223C47.6287 17.8205 47.9075 17.1475 48.4037 16.6512C48.8999 16.155 49.5729 15.8762 50.2747 15.8762H76.7351C77.4369 15.8762 78.1099 16.155 78.6061 16.6512C79.1024 17.1475 79.3811 17.8205 79.3811 18.5223V31.7525H47.6287V18.5223ZM95.2574 18.5223V31.7525H119.072C121.177 31.7525 123.196 32.5888 124.685 34.0775C126.173 35.5662 127.01 37.5852 127.01 39.6906C127.01 41.7959 126.173 43.815 124.685 45.3037C123.196 46.7923 121.177 47.6287 119.072 47.6287H7.93811C5.83279 47.6287 3.8137 46.7923 2.32502 45.3037C0.836334 43.815 0 41.7959 0 39.6906C0 37.5852 0.836334 35.5662 2.32502 34.0775C3.8137 32.5888 5.83279 31.7525 7.93811 31.7525H31.7525V18.5223C31.7525 8.29797 40.0504 0 50.2747 0H76.7351C86.9594 0 95.2574 8.29797 95.2574 18.5223ZM26.418 70.6492C26.3387 69.5929 26.0488 68.5631 25.5653 67.6205C25.0818 66.6779 24.4146 65.8417 23.6029 65.161C22.7912 64.4803 21.8515 63.969 20.8391 63.6571C19.8267 63.3453 18.7622 63.2392 17.7081 63.3452C16.6541 63.4512 15.632 63.767 14.7019 64.2741C13.7719 64.7813 12.9528 65.4694 12.2928 66.2981C11.6329 67.1267 11.1454 68.0791 10.8592 69.099C10.5731 70.1189 10.4939 71.1858 10.6265 72.2368L17.612 142.092C18.0712 146.661 20.2106 150.895 23.6154 153.976C27.0203 157.056 31.4477 158.762 36.039 158.762H90.9708C100.497 158.762 108.456 151.554 109.398 142.082L116.383 72.2262C116.532 70.1644 115.87 68.1261 114.538 66.5447C113.207 64.9633 111.311 63.9637 109.254 63.7582C107.198 63.5528 105.142 64.1579 103.524 65.4448C101.906 66.7316 100.854 68.5988 100.592 70.6492L93.6062 140.505C93.5406 141.158 93.2345 141.763 92.7475 142.203C92.2604 142.643 91.6272 142.887 90.9708 142.886H36.039C35.3826 142.887 34.7494 142.643 34.2623 142.203C33.7753 141.763 33.4692 141.158 33.4036 140.505L26.418 70.6492Z" fill="white"/>
</svg>
