<svg width="28" height="28" viewBox="0 0 30 30" fill="none" xmlns="http://www.w3.org/2000/svg">
<path fill-rule="evenodd" clip-rule="evenodd" d="M22.4926 24.374C20.4394 26.0173 17.8344 27 15 27C8.37258 27 3 21.6274 3 15C3 12.1656 3.98272 9.56064 5.62603 7.50738L22.4926 24.374ZM24.3738 22.4929L7.50711 5.62625C9.56041 3.98281 12.1654 3 15 3C21.6274 3 27 8.37258 27 15C27 17.8346 26.0172 20.4396 24.3738 22.4929ZM30 15C30 23.2843 23.2843 30 15 30C6.71573 30 0 23.2843 0 15C0 6.71573 6.71573 0 15 0C23.2843 0 30 6.71573 30 15Z" fill="white"/>
</svg>
